<svg xmlns="http://www.w3.org/2000/svg" width="70" height="70" viewBox="0 0 70 70"><defs><style>.a{fill:#57b8ff;}.b{fill:#fff;}</style></defs><g transform="translate(-1163 -170)"><rect class="a" width="70" height="70" rx="8" transform="translate(1163 170)"/><path class="b" d="M30.561,0H3.667A3.76,3.76,0,0,0,0,3.667V35.451a3.76,3.76,0,0,0,3.667,3.667H30.561a3.76,3.76,0,0,0,3.667-3.667V3.667A3.76,3.76,0,0,0,30.561,0ZM9.78,33.251a1.052,1.052,0,0,1-.978.978H5.868a1.052,1.052,0,0,1-.978-.978V30.317a1.052,1.052,0,0,1,.978-.978H8.8a1.052,1.052,0,0,1,.978.978Zm0-9.78a1.052,1.052,0,0,1-.978.978H5.868a1.052,1.052,0,0,1-.978-.978V20.537a1.052,1.052,0,0,1,.978-.978H8.8a1.052,1.052,0,0,1,.978.978Zm9.78,9.78a1.052,1.052,0,0,1-.978.978H15.647a1.052,1.052,0,0,1-.978-.978V30.317a1.052,1.052,0,0,1,.978-.978h2.934a1.052,1.052,0,0,1,.978.978v2.934Zm0-9.78a1.052,1.052,0,0,1-.978.978H15.647a1.052,1.052,0,0,1-.978-.978V20.537a1.052,1.052,0,0,1,.978-.978h2.934a1.052,1.052,0,0,1,.978.978v2.934Zm9.78,9.78a1.052,1.052,0,0,1-.978.978H25.427a1.052,1.052,0,0,1-.978-.978V20.537a1.052,1.052,0,0,1,.978-.978h2.934a1.052,1.052,0,0,1,.978.978Zm0-19.559a1.052,1.052,0,0,1-.978.978H5.868a1.052,1.052,0,0,1-.978-.978V5.868a1.052,1.052,0,0,1,.978-.978H28.361a1.052,1.052,0,0,1,.978.978Z" transform="translate(1180.886 185.441)"/></g></svg>