<svg id="Layer_1" data-name="Layer 1" xmlns="http://www.w3.org/2000/svg" viewBox="0 0 124.91 60.59"><defs><style>.cls-1,.cls-3{fill:#fff;}.cls-2{fill:#0090f3;}.cls-3{stroke:#fff;stroke-miterlimit:10;}</style></defs><path class="cls-1" d="M79.22,19.79c-5,0-10,0-15.08,0-.66,0-.94.2-1.08.83a18,18,0,0,1-.69,2.52c-.26.74,0,.85.68.85,4,0,7.9,0,11.85,0a9.92,9.92,0,0,1,3.11.4,2.63,2.63,0,0,1,2.1,2.92,14.94,14.94,0,0,1-2,6.7,5.78,5.78,0,0,1-4.3,2.54,12.8,12.8,0,0,1-2.14.19H46.05l3.64-13.3c-.53.07-.73.42-1,.66q-6.26,6-12.48,12a3.57,3.57,0,0,1-1.69,1,2.23,2.23,0,0,1-2.93-1.36L25.83,23.92c-.11-.22-.16-.49-.45-.63a10.65,10.65,0,0,0-.6,2q-1.5,5.41-3,10.83c-.12.48-.3.67-.82.65-1.17,0-2.35,0-3.58,0,.06-.29.09-.51.15-.72l5-18.4a3.22,3.22,0,0,1,4.21-2.09,2,2,0,0,1,1,1.17l6.75,14.08c.58,1.21.57,1.2,1.53.28Q43.55,23.88,51,16.7a3.76,3.76,0,0,1,3-1.33c1.52.15,2,.8,1.6,2.26L51.7,31.87c-.24.87-.24.88.66.88H72a10,10,0,0,0,1.45-.11,1.8,1.8,0,0,0,1.51-1.27,20.16,20.16,0,0,0,.6-2.15,1.13,1.13,0,0,0-1.07-1.52,7.19,7.19,0,0,0-1.23-.06c-5.18,0-10.36,0-15.54,0-.7,0-.8-.17-.61-.81C58,23.4,59,20,59.89,16.52c.16-.58.43-.7,1-.7q7.85,0,15.69,0A32.15,32.15,0,0,1,79.22,19.79Z"/><path class="cls-2" d="M79.22,19.79a32.15,32.15,0,0,0-2.67-4c-1.38-2.31-3-4.49-4.42-6.75-.85-1.31-1.72-2.59-2.63-4a1.61,1.61,0,0,1,1,.44c5.53,3.94,11.08,7.87,16.6,11.83a1.18,1.18,0,0,0,1.6.05c6-4.05,12.07-8.05,18.11-12.07.25-.16.46-.41.81-.41,0,.33-.23.51-.38.73-4,5.82-8,11.64-12,17.44a1.14,1.14,0,0,0,0,1.54c4,5.83,7.9,11.67,11.85,17.52a3,3,0,0,1,.51,1c-.39,0-.56-.31-.79-.46q-9.12-5.93-18.22-11.9a1.16,1.16,0,0,0-1.55.05q-6.18,4.38-12.4,8.7a29.32,29.32,0,0,1-2.94,1.81c.36-.83,1.14-1.25,1.74-1.79,4.64-4.16,9.34-8.25,14-12.39a1.12,1.12,0,0,1,1.68-.13C91.09,28.37,93,29.58,95,30.86a.67.67,0,0,0,.7.13c-1.43-2.22-3.05-4.3-4.61-6.42a.86.86,0,0,1,0-1.25c1.45-1.92,2.85-3.88,4.27-5.82.07-.11.28-.18.09-.37s-.24,0-.34,0-.39.22-.58.34c-1.83,1.23-3.68,2.43-5.49,3.69a1,1,0,0,1-1.36,0c-2-1.41-3.87-2.85-5.91-4.14-.08-.05-.16-.09-.39,0,1.48,2.22,3,4.45,4.44,6.66-.19.24-.36.1-.5.05-1.38-.5-2.74-1-4.12-1.5a1.55,1.55,0,0,1-.77-.7C80,20.92,79.61,20.36,79.22,19.79Z"/><path class="cls-3" d="M47.3,51.9a3.19,3.19,0,0,0,.47-1.32c.1-.42.33-.52.72-.5s.69,0,.82.46.09,1.16.51,1.16.36-.74.48-1.15.45-.45.82-.47c.52,0,1.23.3,1.21-.74,0-.35.52-.14.8-.19s.38.1.35.36c0,.43.11.62.56.59s.3.27.3.49,0,.44-.3.42-.64.12-.55.55-.33,1.13.43,1.29c.41.09.4.29.39.58s-.28.37-.53.4a1.19,1.19,0,0,1-1.49-1.3,6.54,6.54,0,0,1,0-1c.08-.5-.28-.5-.58-.61-.48-.17-.34.26-.41.43a16.86,16.86,0,0,0-.63,1.81.72.72,0,0,1-.82.61c-.46,0-.7-.14-.81-.6s-.28-.86-.45-1.36A2.41,2.41,0,0,0,48,53.08c-.13.42-.25.72-.81.7a.78.78,0,0,1-.87-.64c-.23-.79-.54-1.55-.78-2.33-.07-.21-.41-.6,0-.68s.94-.34,1.16.34A3.37,3.37,0,0,0,47.3,51.9Z"/><path class="cls-3" d="M37.5,52.08c0,1.56-.09,1.66-1.62,1.79a2.82,2.82,0,0,1-3-1.54,2.86,2.86,0,0,1,.54-3.14,3.13,3.13,0,0,1,3.44-.46c.21.1.67.17.43.53s-.32.84-1,.53a1.58,1.58,0,1,0-.43,2.94c.36-.06.45-.24.45-.57s-.14-.48-.46-.45c-.48.06-.53-.2-.54-.6s.31-.43.61-.43h.16C37.5,50.67,37.5,50.67,37.5,52.08Z"/><path class="cls-3" d="M86,48.43a1.92,1.92,0,0,1,1,.21c.24.11.74.17.55.54s-.43.91-1.05.46a.89.89,0,0,0-.81-.1.46.46,0,0,0-.38.42.42.42,0,0,0,.27.42c.38.16.77.29,1.14.45a1.37,1.37,0,0,1,.95,1.35,1.53,1.53,0,0,1-1,1.5,2.7,2.7,0,0,1-2.51-.21c-.17-.1-.59-.22-.26-.53s.38-.78.89-.45a1.45,1.45,0,0,0,1.08.29.51.51,0,0,0,.47-.44.49.49,0,0,0-.3-.5,6.08,6.08,0,0,0-.64-.25c-1.13-.39-1.54-.92-1.41-1.79A1.82,1.82,0,0,1,86,48.43Z"/><path class="cls-3" d="M56.11,50.2c.29.1.41-.08.58-.13a1.25,1.25,0,0,1,1.76,1,17.47,17.47,0,0,1,.06,2.29c0,.53-.42.33-.69.35s-.57,0-.56-.41,0-1.08,0-1.61c0-.35-.09-.7-.54-.69s-.57.33-.59.68a14.24,14.24,0,0,0,0,1.46c0,.49-.18.59-.63.59s-.62-.14-.61-.61c0-1.46,0-2.92,0-4.37,0-.52.21-.58.64-.58s.66.1.61.59S56.11,49.76,56.11,50.2Z"/><path class="cls-3" d="M91.94,52c0,.33,0,.67,0,1,0,.81-.19,1-.92.78a1.24,1.24,0,0,0-.91,0,1.25,1.25,0,0,1-1.75-1.06,20.51,20.51,0,0,1,0-2.22c0-.57.44-.35.73-.39s.55,0,.53.44,0,1,0,1.53c0,.35.07.72.5.74s.61-.34.63-.72a10.16,10.16,0,0,0,0-1.46c0-.48.2-.55.6-.54s.7,0,.65.57S91.94,51.51,91.94,52Z"/><path class="cls-3" d="M14.31,48.65c1.41-.2,1.41-.2,2.1,1,.47.8.53.83.9,0s1-1.34,2-1a4.61,4.61,0,0,1-.88,1.43,3.83,3.83,0,0,0-1,3c.09.5-.13.65-.64.66s-.7-.18-.63-.67a3.72,3.72,0,0,0-.92-3C14.92,49.68,14.64,49.16,14.31,48.65Z"/><path class="cls-3" d="M78.42,51.88v1.46c0,.28-.11.45-.4.41a7,7,0,0,0-1.94.07c-.67.1-1.17-.43-1.23-1.19s0-1.43,0-2.15c0-.52.36-.37.64-.39s.63,0,.6.45,0,1,0,1.53.07.72.51.73.6-.33.62-.73,0-.87,0-1.3,0-.71.6-.7.68.25.64.74S78.42,51.52,78.42,51.88Z"/><path class="cls-3" d="M27.19,52v1.38c0,.23-.05.44-.33.41a12.26,12.26,0,0,0-2.1.06c-.72,0-1.09-.5-1.15-1.19s0-1.23,0-1.84c0-.41,0-.72.58-.71s.71.2.66.71,0,.82,0,1.23.05.78.52.79.62-.39.63-.8a10.59,10.59,0,0,0,0-1.38c0-.49.21-.55.6-.54s.67,0,.64.5S27.19,51.5,27.19,52Z"/><path class="cls-3" d="M105.7,53.87a2.31,2.31,0,0,1-1-.22c-.19-.11-.61-.14-.39-.49s.34-.71.82-.38a1.13,1.13,0,0,0,.28.12c.25.08.56.15.66-.15s-.23-.35-.43-.42-.39-.12-.58-.19a1,1,0,0,1-.68-.84,1.06,1.06,0,0,1,.51-1,2.05,2.05,0,0,1,2-.08c.18.07.54.14.36.44s-.3.59-.7.44-.78-.4-.91.05.46.34.74.44c.62.21,1.05.55,1,1.28S106.6,53.87,105.7,53.87Z"/><path class="cls-3" d="M64.93,50a3.4,3.4,0,0,1,.7.18c.19.08.63.11.41.47s-.31.65-.77.4a.72.72,0,0,0-.2-.09c-.25-.06-.57-.16-.66.16s.26.3.46.38.39.1.58.18a1,1,0,0,1,.7,1,1.09,1.09,0,0,1-.67,1,2.33,2.33,0,0,1-2,0c-.18-.08-.54-.16-.36-.45s.31-.65.76-.44.82.47,1,0-.47-.39-.77-.5c-.6-.22-1-.57-.86-1.25S63.93,50,64.93,50Z"/><path class="cls-3" d="M109.27,53.88a2.7,2.7,0,0,1-1.1-.22c-.2-.11-.61-.15-.42-.48s.33-.71.82-.4a.88.88,0,0,0,.28.12c.24.07.55.15.65-.16s-.23-.34-.44-.42l-.51-.16a1,1,0,0,1-.73-1,1.09,1.09,0,0,1,.66-1,2.14,2.14,0,0,1,1.85,0c.16.08.49.14.37.39s-.29.56-.67.52c-.12,0-.22-.12-.34-.15s-.57-.16-.66.16.26.31.46.38.3.07.44.12a1.07,1.07,0,0,1,.84,1.06,1.13,1.13,0,0,1-.88,1.11A4.45,4.45,0,0,1,109.27,53.88Z"/><path class="cls-3" d="M98.48,50a3.45,3.45,0,0,1,.65.15c.23.09.66.13.46.5s-.27.74-.78.51a.75.75,0,0,0-1,.22.92.92,0,0,0-.06,1.08.8.8,0,0,0,1.07.31c.54-.2.7.27.83.57s-.28.37-.49.45a2.19,2.19,0,0,1-2.33-.53,1.92,1.92,0,0,1-.28-2.15A2,2,0,0,1,98.48,50Z"/><path class="cls-3" d="M94.85,53.87a2,2,0,0,1-2-1.14,1.93,1.93,0,0,1,.35-2.14,2.14,2.14,0,0,1,2.33-.47c.21.08.62.13.44.46s-.29.74-.77.55a.79.79,0,0,0-1.08.25.92.92,0,0,0,0,1.08.79.79,0,0,0,1,.28c.54-.23.71.25.83.54s-.3.38-.52.48A2.08,2.08,0,0,1,94.85,53.87Z"/><path class="cls-3" d="M28.1,51.91a11,11,0,0,0,0-1.15c-.06-.53.13-.75.67-.67a1.69,1.69,0,0,0,1.3-.08.27.27,0,0,1,.44.23c0,.27.16.75-.21.79-1.06.11-1,.84-1,1.57,0,.2,0,.41,0,.61.06.53-.25.55-.66.56s-.61-.11-.57-.56S28.1,52.34,28.1,51.91Z"/><path class="cls-3" d="M79.32,51.85a6.37,6.37,0,0,0,0-1.07c-.11-.71.31-.77.82-.68A1.27,1.27,0,0,0,81.19,50c.16-.1.51-.18.53.17s.23.77-.24.83c-.85.11-.94.65-.91,1.32,0,.25,0,.51,0,.76.06.52-.17.65-.66.66s-.64-.16-.6-.62S79.32,52.29,79.32,51.85Z"/><path class="cls-3" d="M62.44,51.89c0,.38,0,.76,0,1.15s0,.75-.63.74-.6-.29-.59-.71c0-.82,0-1.64,0-2.45,0-.48.21-.55.61-.54s.66,0,.62.51S62.44,51.45,62.44,51.89Z"/><path class="cls-1" d="M61.82,48.27c.41,0,.69.24.69.66a.68.68,0,0,1-1.36,0C61.14,48.53,61.42,48.33,61.82,48.27Z"/><path class="cls-3" d="M71.29,48.42a2.62,2.62,0,0,0-2.82,2.68,2.83,2.83,0,0,0,5.65,0A2.64,2.64,0,0,0,71.29,48.42Zm0,4.3a1.51,1.51,0,0,1-1.5-1.6,1.47,1.47,0,1,1,2.94,0A1.53,1.53,0,0,1,71.32,52.72Z"/><path class="cls-3" d="M45.06,51.77a1.74,1.74,0,0,0-1.25-1.66,2.13,2.13,0,0,0-2.39.56c-.13.13-.18.42-.45.31s-.13-.31-.12-.47c0-.57-.25-.62-.66-.44a.88.88,0,0,1-.75.07c-.8-.28-1-.07-1,.81v.92c0,.38,0,.77,0,1.15s0,.76.62.76.63-.32.61-.76,0-.67,0-1a.89.89,0,0,1,1-1c.75,0,.28.58.3.86a2,2,0,0,0,2.12,1.95A1.94,1.94,0,0,0,45.06,51.77Zm-2,1a.8.8,0,0,1-.84-.88c0-.52.24-.9.81-.91s.8.36.85.87S43.6,52.8,43.05,52.81Z"/><path class="cls-3" d="M20.84,50a1.89,1.89,0,0,0-2,2,2,2,0,0,0,4,0A1.9,1.9,0,0,0,20.84,50Zm0,2.84c-.55,0-.81-.36-.88-.86s.25-.92.82-.93a.9.9,0,0,1,.06,1.79Z"/><path class="cls-3" d="M101.69,52.27h.84a6.6,6.6,0,0,1,.77,0c.46,0,.56-.2.52-.61A1.78,1.78,0,0,0,102.21,50a2,2,0,0,0-2.06,1.14,2,2,0,0,0,.53,2.31,2.27,2.27,0,0,0,2.52.12c.18-.12.5-.27.36-.48a.72.72,0,0,0-.82-.41c-.12,0-.21.14-.33.18a1,1,0,0,1-.82-.06c-.13-.08-.28-.18-.27-.34S101.54,52.27,101.69,52.27Zm-.38-1c0-.34.37-.44.69-.44s.64.12.6.44-.47.07-.66.24C101.7,51.41,101.3,51.68,101.31,51.29Z"/></svg>