<svg id="Layer_1" data-name="Layer 1" xmlns="http://www.w3.org/2000/svg" viewBox="0 0 176.2 53.7"><defs><style>.cls-1{fill:#fff;}.cls-2{fill:#0090f3;}</style></defs><path class="cls-1" d="M46.57,15H42.35l-4,17.36a1.55,1.55,0,0,1-1.51,1.21H33.67a1.55,1.55,0,0,1-1.51-1.9l3.63-15.72A.78.78,0,0,0,35,15H30.82l-4,17.28a4.12,4.12,0,0,0,4,5.06h7.32a5.29,5.29,0,0,0,5.16-4.11l4-17.28A.77.77,0,0,0,46.57,15Z"/><path class="cls-2" d="M107.55,15a.77.77,0,0,0-.76.6l-.71,3.09h5.36l-4.08,17.7a.77.77,0,0,0,.75,1h4.22l4.31-18.65h5a.79.79,0,0,0,.76-.6l.71-3.09Z"/><path class="cls-2" d="M164.64,15H153.78l-4.94,21.39a.78.78,0,0,0,.76,1h4.22L156,27.73h2.37l2.08,9a.77.77,0,0,0,.75.6h4.58l-2.22-9.59c2.61-.53,4.88-2.91,4.88-7.82C168.47,16,167,15,164.64,15Zm-4.25,9.2h-3.54l1.3-5.65H162C164.44,18.53,164.44,24.18,160.39,24.18Z"/><path class="cls-1" d="M22,15H11.12L6.19,36.37a.77.77,0,0,0,.75,1h4.22l2.21-9.59h2.38l2.07,9a.78.78,0,0,0,.76.6h4.57l-2.21-9.59c2.6-.53,4.87-2.91,4.87-7.82C25.81,16,24.38,15,22,15Zm-4.26,9.2H14.19l1.31-5.65h3.79C21.78,18.53,21.78,24.18,17.73,24.18Z"/><path class="cls-1" d="M55.88,15h0c-5.19,0-6.24,5.57-6.24,8.28,0,6.24,7.76,3.32,7.76,6.84,0,3.25-2.25,3.39-5.77,3.39-.91,0-4.35,0-4.35,0h-.6L46,36.37a.78.78,0,0,0,.76,1h9.79c3.47,0,6.16-3.42,6.16-8.42,0-7.22-7.9-3.95-7.9-7.44,0-2.83,1.35-2.83,2.14-2.83h5.66a.78.78,0,0,0,.76-.6l.7-3.05Z"/><path class="cls-2" d="M95.58,15h0c-5.19,0-6.24,5.57-6.24,8.28,0,6.24,7.75,3.32,7.75,6.84,0,3.25-2.24,3.39-5.76,3.39l-5,0-.65,2.82a.78.78,0,0,0,.75,1h9.79c3.47,0,6.16-3.42,6.16-8.42,0-7.22-7.89-3.95-7.89-7.44,0-2.83,1.34-2.83,2.14-2.83h5.66a.77.77,0,0,0,.75-.6l.71-3.05Z"/><path class="cls-1" d="M86,15H81.74l-1.9,8.25h-7l1.69-7.3a.78.78,0,0,0-.76-.95H69.61L64.67,36.37a.77.77,0,0,0,.75,1h4.22l2.42-10.47H79l-2.19,9.52a.77.77,0,0,0,.75,1h4.22l4.94-21.39A.78.78,0,0,0,86,15Z"/><path class="cls-2" d="M165.81,9.12a2.08,2.08,0,0,1,.28-1.06A2.13,2.13,0,0,1,167.92,7a2,2,0,0,1,1.05.29,2,2,0,0,1,.78.77A2.08,2.08,0,0,1,170,9.12a2.12,2.12,0,0,1-.27,1,2.08,2.08,0,0,1-.76.77,2,2,0,0,1-1.08.3,2.1,2.1,0,0,1-1.07-.29,2.13,2.13,0,0,1-.77-.78A2.1,2.1,0,0,1,165.81,9.12Zm.34,0a1.69,1.69,0,0,0,.24.88,1.76,1.76,0,0,0,.65.65,1.7,1.7,0,0,0,.88.23,1.77,1.77,0,0,0,1.77-1.76,1.75,1.75,0,0,0-.24-.89,1.67,1.67,0,0,0-.65-.64,1.71,1.71,0,0,0-.88-.24,1.81,1.81,0,0,0-.88.23,1.74,1.74,0,0,0-.64.65A1.64,1.64,0,0,0,166.15,9.12Zm2.63-.5a.64.64,0,0,1-.43.65l.66,1.12h-.59l-.54-1h-.25v1h-.53V7.85h.73a1.09,1.09,0,0,1,.72.19A.72.72,0,0,1,168.78,8.62ZM167.63,9h.19a.49.49,0,0,0,.32-.1.37.37,0,0,0,.1-.28.32.32,0,0,0-.1-.28.47.47,0,0,0-.32-.08h-.19Z"/><polygon class="cls-1" points="115.22 51.21 115.14 51.21 115.23 46.39 112.87 46.39 110.73 51.21 110.64 51.21 111.07 46.39 109.14 46.39 108.82 52.56 111.76 52.56 113.62 48.17 113.69 48.17 113.54 52.56 116.44 52.56 118.95 46.39 117.05 46.39 115.22 51.21"/><polygon class="cls-1" points="119.22 52.56 121.23 52.56 122.66 46.39 120.64 46.39 119.22 52.56"/><polygon class="cls-1" points="120.9 45.3 122.92 45.3 123.28 43.75 121.25 43.75 120.9 45.3"/><path class="cls-1" d="M128.57,46.32a1.9,1.9,0,0,0-1.77,1h-.08l.21-.91h-2l-1.42,6.17h2l.85-3.7c.12-.51.37-1,1-1s.42.48.32.92l-.07.29h1.82l.11-.48C129.83,47.47,130,46.32,128.57,46.32Z"/><path class="cls-1" d="M135,46.32c-2.48,0-3.2.79-3.75,3.16s-.15,3.15,2.29,3.15a5.21,5.21,0,0,0,2.25-.36A2.41,2.41,0,0,0,137,50.5h-2c-.15.65-.57.72-1.19.72-.83,0-.92-.32-.67-1.4h4l.08-.34C137.86,47,137.32,46.32,135,46.32Zm.43,2.39h-2c.21-.81.47-1,1.18-1S135.65,47.79,135.44,48.71Z"/><polygon class="cls-1" points="138.8 52.56 140.82 52.56 142.86 43.75 140.84 43.75 138.8 52.56"/><path class="cls-1" d="M147.49,46.32c-2.48,0-3.2.79-3.75,3.16s-.14,3.15,2.29,3.15a5.21,5.21,0,0,0,2.25-.36,2.45,2.45,0,0,0,1.25-1.77h-2c-.15.65-.56.72-1.19.72-.83,0-.92-.32-.67-1.4h4l.08-.34C150.35,47,149.8,46.32,147.49,46.32Zm.43,2.39h-2c.21-.81.47-1,1.19-1S148.14,47.79,147.92,48.71Z"/><path class="cls-1" d="M155.43,46.32c-1.72,0-3,0-3.49,2-.29,1.26,0,1.83,2.59,1.83.71,0,1.06,0,.92.62s-.27.54-1.18.54c-.5,0-1,0-.84-.7h-2c-.47,2,1,2,2.56,2s3.08-.27,3.5-2.08-.51-1.84-2.58-1.89c-1,0-1-.24-.94-.54s.12-.49,1.17-.49c.32,0,.76,0,.71.51h1.9l.07-.29C158.15,46.33,156.55,46.32,155.43,46.32Z"/><path class="cls-1" d="M163.39,46.32c-1.72,0-3,0-3.49,2-.29,1.26,0,1.83,2.6,1.83.7,0,1.05,0,.91.62s-.26.54-1.18.54c-.49,0-1,0-.84-.7h-2c-.47,2,1,2,2.56,2s3.08-.27,3.5-2.08-.5-1.84-2.58-1.89c-1,0-1-.24-.93-.54s.11-.49,1.17-.49c.31,0,.75,0,.7.51h1.9l.07-.29C166.11,46.33,164.52,46.32,163.39,46.32Z"/><polygon class="cls-2" points="124.67 19.15 127.85 18.24 130.19 11.88 133.11 19.41 143.29 16.07 135.22 24.39 138.59 33.82 129.63 30.01 117.21 42.15 129.76 33.92 147.88 43.18 140.65 24.18 160.62 5.76 135.91 14.45 131.02 1.07 124.67 19.15"/><path class="cls-1" d="M12.65,7.83H10.82l-.45.74H9.59L12,4.7h.85l.67,3.87h-.71Zm-1.51-.6H12.6l-.31-1.94Z"/><path class="cls-1" d="M17.73,6.78s0-.1,0-.17a.39.39,0,0,0-.43-.37,1,1,0,0,0-.67.37l-.43,2h-.61L16,6.78a1,1,0,0,0,0-.2c0-.19-.16-.34-.44-.34a1,1,0,0,0-.66.37l-.43,2h-.61l.62-2.81h.61L15,6.15a1.18,1.18,0,0,1,.86-.45.7.7,0,0,1,.75.49v0a1.24,1.24,0,0,1,1-.51.71.71,0,0,1,.77.7,1.75,1.75,0,0,1,0,.24l-.43,1.93h-.61Z"/><path class="cls-1" d="M20.45,5.7a1.18,1.18,0,0,1,1.24,1.24,1.65,1.65,0,0,1-.06.43H19.46v.1c0,.32.29.67.86.67a1.33,1.33,0,0,0,.75-.23l.19.42a1.67,1.67,0,0,1-1,.31,1.25,1.25,0,0,1-1.42-1.25A1.64,1.64,0,0,1,20.45,5.7Zm.69,1.16a.66.66,0,0,0-.74-.67.93.93,0,0,0-.88.75h1.61A.22.22,0,0,0,21.14,6.86Z"/><path class="cls-1" d="M22.59,5.76h.61l-.09.4a1.27,1.27,0,0,1,1-.46L24,6.31a1.11,1.11,0,0,0-.25,0,1,1,0,0,0-.74.39l-.42,1.9H22Z"/><path class="cls-1" d="M24.61,5.76h.61L24.6,8.57H24Zm.52-1.22a.34.34,0,0,1,.34.33.43.43,0,0,1-.42.43A.33.33,0,0,1,24.71,5,.43.43,0,0,1,25.13,4.54Z"/><path class="cls-1" d="M27.11,5.7a1.19,1.19,0,0,1,1.1.54l-.46.34a.71.71,0,0,0-.64-.34,1,1,0,0,0-1,1.11.72.72,0,0,0,.78.75.87.87,0,0,0,.64-.3l.33.41a1.39,1.39,0,0,1-1,.43A1.23,1.23,0,0,1,25.5,7.37,1.63,1.63,0,0,1,27.11,5.7Z"/><path class="cls-1" d="M30.87,5.76h.61l-.62,2.81h-.61l.08-.37a1.1,1.1,0,0,1-.87.44,1,1,0,0,1-1.08-1.15A1.64,1.64,0,0,1,29.86,5.7a1.09,1.09,0,0,1,.93.47ZM29.71,8.1a.93.93,0,0,0,.73-.39l.25-1.09A.84.84,0,0,0,30,6.24,1,1,0,0,0,29,7.36.67.67,0,0,0,29.71,8.1Z"/><path class="cls-1" d="M32.17,5.89a1.1,1.1,0,0,0,.53-.49h-.05a.3.3,0,0,1-.31-.33.46.46,0,0,1,.45-.43.38.38,0,0,1,.38.42,1.36,1.36,0,0,1-.77,1.07Z"/><path class="cls-1" d="M33.15,7.72a1.3,1.3,0,0,0,1,.44c.31,0,.51-.18.51-.38s-.27-.28-.56-.39-.89-.32-.89-.78.39-.91,1.11-.91a1.55,1.55,0,0,1,1.14.45l-.32.41a1.11,1.11,0,0,0-.83-.38c-.32,0-.5.15-.5.33s.25.26.54.36.92.33.92.81-.43,1-1.17,1a1.67,1.67,0,0,1-1.27-.5Z"/><path class="cls-1" d="M41.17,5.52,39.31,8.57H39L38.5,5.52l-.67,3.05h-.68L38,4.7h.93l.46,2.72L41,4.7h1l-.85,3.87H40.5Z"/><path class="cls-1" d="M43.69,5.7A1.22,1.22,0,0,1,45,7a1.64,1.64,0,0,1-1.6,1.68,1.22,1.22,0,0,1-1.35-1.26A1.64,1.64,0,0,1,43.69,5.7Zm0,.54a1,1,0,0,0-1,1.11.69.69,0,0,0,.73.75A1,1,0,0,0,44.4,7,.68.68,0,0,0,43.67,6.24Z"/><path class="cls-1" d="M45.57,7.72a1.3,1.3,0,0,0,1,.44c.31,0,.5-.18.5-.38s-.26-.28-.55-.39-.89-.32-.89-.78S46,5.7,46.7,5.7a1.55,1.55,0,0,1,1.14.45l-.32.41a1.13,1.13,0,0,0-.83-.38c-.32,0-.5.15-.5.33s.25.26.54.36.91.33.91.81a1,1,0,0,1-1.16,1,1.67,1.67,0,0,1-1.27-.5Z"/><path class="cls-1" d="M48.33,7.89l.36-1.6h-.47l.12-.53h.47L49,5h.61l-.17.76H50l-.13.53H49.3L49,7.74a.36.36,0,0,0,0,.11c0,.16.1.25.28.25A.43.43,0,0,0,49.48,8l0,.48a.69.69,0,0,1-.45.13c-.45,0-.75-.18-.75-.57C48.31,8,48.32,8,48.33,7.89Z"/><path class="cls-1" d="M53.07,5.29H51.89L52,4.7h3l-.13.59H53.75L53,8.57h-.68Z"/><path class="cls-1" d="M54.94,5.76h.61l-.09.4a1.27,1.27,0,0,1,1-.46l-.14.61a1,1,0,0,0-.25,0,1,1,0,0,0-.74.39l-.42,1.9h-.61Z"/><path class="cls-1" d="M57.18,7.52a1.13,1.13,0,0,0,0,.18c0,.28.23.4.53.4a1.16,1.16,0,0,0,.74-.38l.43-2h.62l-.63,2.81h-.61l.09-.38a1.41,1.41,0,0,1-1,.45c-.52,0-.86-.27-.86-.71a2.08,2.08,0,0,1,0-.23L57,5.76h.61Z"/><path class="cls-1" d="M59.89,7.72a1.3,1.3,0,0,0,1,.44c.31,0,.5-.18.5-.38s-.26-.28-.55-.39-.89-.32-.89-.78S60.3,5.7,61,5.7a1.55,1.55,0,0,1,1.14.45l-.32.41A1.13,1.13,0,0,0,61,6.18c-.32,0-.5.15-.5.33s.25.26.54.36.91.33.91.81a1,1,0,0,1-1.16,1,1.66,1.66,0,0,1-1.27-.5Z"/><path class="cls-1" d="M62.65,7.89,63,6.29h-.46l.12-.53h.47L63.29,5h.61l-.16.76h.57l-.13.53h-.57l-.32,1.45s0,.07,0,.11.1.25.28.25A.37.37,0,0,0,63.79,8l0,.48a.71.71,0,0,1-.45.13c-.45,0-.75-.18-.75-.57C62.63,8,62.64,8,62.65,7.89Z"/><path class="cls-1" d="M65.94,5.7a1.17,1.17,0,0,1,1.24,1.24,2.31,2.31,0,0,1-.05.43H65v.1c0,.32.29.67.86.67a1.27,1.27,0,0,0,.74-.23l.2.42a1.69,1.69,0,0,1-1,.31,1.25,1.25,0,0,1-1.42-1.25A1.64,1.64,0,0,1,65.94,5.7Zm.7,1.16a.67.67,0,0,0-.74-.67.93.93,0,0,0-.88.75h1.61A.22.22,0,0,0,66.64,6.86Z"/><path class="cls-1" d="M70.3,4.7h.61l-.86,3.87h-.61l.08-.37a1.1,1.1,0,0,1-.87.44,1,1,0,0,1-1.08-1.15A1.64,1.64,0,0,1,69.05,5.7a1.09,1.09,0,0,1,.93.47ZM68.9,8.1a1,1,0,0,0,.74-.39l.24-1.09a.84.84,0,0,0-.74-.38,1,1,0,0,0-.93,1.12A.68.68,0,0,0,68.9,8.1Z"/><path class="cls-1" d="M75.2,5.71,73.81,8.57h-.72L72.83,4.7h.75l.09,3,1.46-3h.54l.14,3,1.41-3H78l-2,3.87h-.73Z"/><path class="cls-1" d="M78.21,5.76h.61L78.2,8.57h-.61Zm.52-1.22a.34.34,0,0,1,.34.33.43.43,0,0,1-.42.43A.33.33,0,0,1,78.31,5,.43.43,0,0,1,78.73,4.54Z"/><path class="cls-1" d="M79.61,5.76h.61l-.1.4a1.28,1.28,0,0,1,1-.46L81,6.31a1.11,1.11,0,0,0-.25,0,1,1,0,0,0-.75.39l-.41,1.9H79Z"/><path class="cls-1" d="M82.72,5.7A1.17,1.17,0,0,1,84,6.94a1.69,1.69,0,0,1,0,.43H81.73v.1c0,.32.29.67.86.67a1.33,1.33,0,0,0,.75-.23l.19.42a1.67,1.67,0,0,1-1,.31,1.25,1.25,0,0,1-1.42-1.25A1.64,1.64,0,0,1,82.72,5.7Zm.69,1.16a.67.67,0,0,0-.74-.67.93.93,0,0,0-.88.75H83.4A.22.22,0,0,0,83.41,6.86Z"/><path class="cls-1" d="M85.09,4.7h.61l-.85,3.87h-.61Z"/><path class="cls-1" d="M87.35,5.7a1.17,1.17,0,0,1,1.24,1.24,2.31,2.31,0,0,1,0,.43H86.37v.1c0,.32.29.67.85.67A1.28,1.28,0,0,0,88,7.91l.2.42a1.71,1.71,0,0,1-1,.31,1.25,1.25,0,0,1-1.42-1.25A1.64,1.64,0,0,1,87.35,5.7Zm.7,1.16a.67.67,0,0,0-.74-.67.93.93,0,0,0-.88.75H88A.22.22,0,0,0,88.05,6.86Z"/><path class="cls-1" d="M89.13,7.72a1.3,1.3,0,0,0,1,.44c.32,0,.51-.18.51-.38s-.26-.28-.56-.39-.89-.32-.89-.78.4-.91,1.12-.91a1.55,1.55,0,0,1,1.13.45l-.32.41a1.09,1.09,0,0,0-.83-.38c-.32,0-.5.15-.5.33s.25.26.54.36.92.33.92.81-.43,1-1.17,1a1.67,1.67,0,0,1-1.27-.5Z"/><path class="cls-1" d="M91.88,7.72a1.26,1.26,0,0,0,1,.44c.32,0,.51-.18.51-.38s-.26-.28-.56-.39-.89-.32-.89-.78.4-.91,1.12-.91a1.55,1.55,0,0,1,1.14.45l-.33.41A1.09,1.09,0,0,0,93,6.18c-.31,0-.49.15-.49.33s.25.26.54.36.91.33.91.81-.43,1-1.17,1a1.69,1.69,0,0,1-1.27-.5Z"/><path class="cls-1" d="M99.79,6.36a2.23,2.23,0,0,1-2.48,2.21H95.87l.86-3.87h1.41A1.64,1.64,0,0,1,99.79,6.36Zm-.71,0A1.06,1.06,0,0,0,98,5.29h-.74L96.68,8h.75A1.56,1.56,0,0,0,99.08,6.4Z"/><path class="cls-1" d="M100.6,5.76h.61l-.62,2.81H100Zm.53-1.22a.34.34,0,0,1,.34.33.43.43,0,0,1-.42.43A.34.34,0,0,1,100.7,5,.44.44,0,0,1,101.13,4.54Z"/><path class="cls-1" d="M101.64,7.72a1.29,1.29,0,0,0,1,.44c.31,0,.5-.18.5-.38s-.26-.28-.55-.39-.89-.32-.89-.78.39-.91,1.11-.91a1.55,1.55,0,0,1,1.14.45l-.32.41a1.13,1.13,0,0,0-.84-.38c-.31,0-.49.15-.49.33s.25.26.54.36.91.33.91.81a1,1,0,0,1-1.16,1,1.66,1.66,0,0,1-1.27-.5Z"/><path class="cls-1" d="M104.4,7.89l.35-1.6h-.46l.12-.53h.47L105,5h.61l-.16.76h.57l-.13.53h-.57L105,7.74s0,.07,0,.11.1.25.28.25a.37.37,0,0,0,.23-.07l0,.48a.71.71,0,0,1-.45.13c-.45,0-.75-.18-.75-.57C104.38,8,104.39,8,104.4,7.89Z"/><path class="cls-1" d="M106.6,5.76h.61l-.09.4a1.27,1.27,0,0,1,1-.46l-.14.61a1.11,1.11,0,0,0-.25,0,1,1,0,0,0-.74.39l-.42,1.9H106Z"/><path class="cls-1" d="M108.62,5.76h.61l-.62,2.81H108Zm.52-1.22a.34.34,0,0,1,.34.33.43.43,0,0,1-.42.43.33.33,0,0,1-.34-.33A.43.43,0,0,1,109.14,4.54Z"/><path class="cls-1" d="M110,8.57h-.61l.85-3.87h.61l-.32,1.44a1.1,1.1,0,0,1,.88-.44,1,1,0,0,1,1.08,1.16A1.64,1.64,0,0,1,111,8.64a1.09,1.09,0,0,1-.93-.47Zm1.16-2.33a1,1,0,0,0-.74.4l-.24,1.08a.84.84,0,0,0,.74.38A1,1,0,0,0,111.86,7,.68.68,0,0,0,111.17,6.24Z"/><path class="cls-1" d="M113.62,7.52a.57.57,0,0,0,0,.18c0,.28.22.4.52.4a1.21,1.21,0,0,0,.75-.38l.43-2h.61l-.62,2.81h-.61l.08-.38a1.4,1.4,0,0,1-1,.45c-.53,0-.86-.27-.86-.71a2,2,0,0,1,0-.23l.43-1.94H114Z"/><path class="cls-1" d="M116.34,7.89l.36-1.6h-.47l.12-.53h.47L117,5h.61l-.17.76H118l-.12.53h-.57L117,7.74a.36.36,0,0,0,0,.11c0,.16.1.25.28.25a.43.43,0,0,0,.24-.07l0,.48a.69.69,0,0,1-.45.13c-.45,0-.75-.18-.75-.57C116.32,8,116.33,8,116.34,7.89Z"/><path class="cls-1" d="M119.62,5.7A1.22,1.22,0,0,1,121,7a1.64,1.64,0,0,1-1.6,1.68A1.21,1.21,0,0,1,118,7.38,1.63,1.63,0,0,1,119.62,5.7Zm0,.54a1,1,0,0,0-1,1.11.68.68,0,0,0,.73.75,1,1,0,0,0,1-1.11A.68.68,0,0,0,119.61,6.24Z"/><path class="cls-1" d="M121.87,5.76h.61l-.09.4a1.27,1.27,0,0,1,1-.46l-.14.61a1.11,1.11,0,0,0-.25,0,1,1,0,0,0-.74.39l-.42,1.9h-.61Z"/><path class="cls-1" d="M123.47,5.06a.72.72,0,1,1,.72.72A.72.72,0,0,1,123.47,5.06Zm.1,0a.62.62,0,1,0,1.23,0,.62.62,0,0,0-1.23,0Zm.59.09H124l-.07.32h-.12l.18-.82h.32a.23.23,0,0,1,.24.22.29.29,0,0,1-.28.28l.15.32h-.13Zm-.07-.4-.06.3h.22a.18.18,0,0,0,.19-.17.13.13,0,0,0-.15-.13Z"/></svg>